<?xml version="1.0" encoding="iso-8859-1"?>
<!-- Generator: Adobe Illustrator 16.0.0, SVG Export Plug-In . SVG Version: 6.00 Build 0)  -->
<!DOCTYPE svg PUBLIC "-//W3C//DTD SVG 1.1//EN" "http://www.w3.org/Graphics/SVG/1.1/DTD/svg11.dtd">
<svg version="1.1" id="Capa_1" xmlns="http://www.w3.org/2000/svg" xmlns:xlink="http://www.w3.org/1999/xlink" x="0px" y="0px"
	 width="374.495px" height="374.494px" viewBox="0 0 374.495 374.494" style="enable-background:new 0 0 374.495 374.494;"
	 xml:space="preserve">
<g>
	<g>
		<path d="M187.249,0.001C83.996,0.001,0,84.001,0,187.247c0,103.245,83.996,187.246,187.249,187.246
			c103.249,0,187.246-84.001,187.246-187.246C374.495,84.001,290.498,0.001,187.249,0.001z M187.249,355.015
			c-92.505,0-167.764-75.262-167.764-167.768c0-92.504,75.259-167.763,167.764-167.763c92.502,0,167.764,75.259,167.764,167.763
			C355.012,279.753,279.75,355.015,187.249,355.015z"/>
		<path d="M193.588,76.39c-0.886-2.744-3.448-4.61-6.34-4.61c-2.894,0-5.455,1.866-6.343,4.61l-33.309,103.26
			c-0.406,1.272-0.423,2.626-0.049,3.91l33.305,114.365c0.83,2.835,3.437,4.788,6.4,4.788s5.57-1.953,6.402-4.788l33.302-114.365
			c0.372-1.283,0.35-2.638-0.049-3.91L193.588,76.39z M187.249,197.617c-8.593,0-15.545-6.961-15.545-15.547
			s6.952-15.546,15.545-15.546c8.591,0,15.544,6.96,15.544,15.546C202.792,190.645,195.839,197.617,187.249,197.617z"/>
		<polygon points="301.195,134.06 301.195,225.908 347.124,179.985 		"/>
	</g>
</g>
<g>
</g>
<g>
</g>
<g>
</g>
<g>
</g>
<g>
</g>
<g>
</g>
<g>
</g>
<g>
</g>
<g>
</g>
<g>
</g>
<g>
</g>
<g>
</g>
<g>
</g>
<g>
</g>
<g>
</g>
</svg>
